<?xml version="1.0" standalone="no"?><!DOCTYPE svg PUBLIC "-//W3C//DTD SVG 1.1//EN" "http://www.w3.org/Graphics/SVG/1.1/DTD/svg11.dtd"><svg t="1693445217970" class="icon" viewBox="0 0 1024 1024" version="1.1" xmlns="http://www.w3.org/2000/svg" p-id="6467" xmlns:xlink="http://www.w3.org/1999/xlink" width="64" height="64"><path d="M279.296 266.688H202.816A394.688 394.688 0 1 1 117.312 512a32 32 0 1 0-64 0A458.688 458.688 0 1 0 156.16 222.656V143.488a32 32 0 1 0-64 0v155.2a32 32 0 0 0 32 32h155.2a32 32 0 0 0 0-64zM544.128 256a32 32 0 0 0-64 0v256.192a32 32 0 0 0 9.344 22.592l180.864 180.928a32 32 0 0 0 45.248-45.248l-171.52-171.52V256z" fill="#707070" p-id="6468"></path></svg>