<?xml version="1.0" standalone="no"?><!DOCTYPE svg PUBLIC "-//W3C//DTD SVG 1.1//EN" "http://www.w3.org/Graphics/SVG/1.1/DTD/svg11.dtd"><svg t="1692885121086" class="icon" viewBox="0 0 1024 1024" version="1.1" xmlns="http://www.w3.org/2000/svg" p-id="7223" xmlns:xlink="http://www.w3.org/1999/xlink" width="64" height="64"><path d="M933.23264 268.8c134.31808 232.64256 54.60992 530.1248-178.03264 664.43264C522.55744 1067.55072 225.0752 987.8528 90.76736 755.2-43.55072 522.55744 36.1472 225.0752 268.8 90.76736 501.44256-43.55072 798.9248 36.1472 933.23264 268.8zM304.64 152.84224C106.2912 267.3664 38.31808 521.00096 152.84224 719.36 267.3664 917.7088 521.00096 985.68192 719.36 871.15776 917.7088 756.6336 985.68192 502.99904 871.15776 304.64 756.6336 106.2912 502.99904 38.31808 304.64 152.84224z m305.87904 96.64512c10.83392 0 19.93728 2.92864 26.99264 8.87808 7.4752 6.31808 11.0592 16.04608 11.0592 28.64128v98.89792c10.5472 15.02208 20.19328 29.29664 28.93824 42.84416a2117.70368 2117.70368 0 0 1 26.7264 42.47552 1588.70528 1588.70528 0 0 1 26.48064 44.9536l10.28096 18.176 18.55488 33.0752c8.79616 16.45568 12.71808 29.7984 11.43808 40.448-1.35168 11.3152-7.96672 20.20352-19.26144 26.28608-11.83744 6.12352-22.48704 7.94624-31.81568 4.98688-9.49248-3.01056-17.84832-12.1856-25.83552-27.36128a1419.02848 1419.02848 0 0 0-29.66528-57.22112l-10.58816-19.1488-5.25312-9.35936v212.49024c0 12.1856-3.55328 21.84192-10.87488 28.4672-7.0656 6.42048-16.25088 9.58464-27.17696 9.58464s-20.10112-3.1744-27.17696-9.5744c-7.3216-6.63552-10.87488-16.30208-10.87488-28.47744V287.00672c0-12.5952 3.584-22.3232 11.06944-28.64128 7.0656-5.94944 16.14848-8.87808 26.9824-8.87808zM373.0432 245.76c10.60864 0 19.70176 3.28704 26.9312 9.85088 7.92576 7.2192 10.4448 19.0464 8.2432 35.79904-0.39936 1.59744-0.69632 3.23584-0.8704 4.68992l-0.256 2.77504-0.08192 1.19808h71.99744c24.33024 0 42.0864 6.31808 52.69504 19.43552 10.48576 12.94336 13.91616 32.6144 10.8544 58.9824-6.0928 45.13792-15.14496 86.28224-27.17696 123.45344-12.04224 37.21216-26.97216 71.2192-44.81024 102.02112a437.63712 437.63712 0 0 1-62.52544 83.63008 547.93216 547.93216 0 0 1-79.872 68.53632c-14.58176 10.25024-26.40896 14.77632-36.10624 12.88192-9.6256-1.87392-17.39776-8.64256-23.32672-19.65056-6.84032-12.87168-9.0624-24.19712-6.12352-33.92512 2.92864-9.65632 11.776-18.70848 26.33728-27.76064 22.4768-13.48608 43.78624-31.06816 63.92832-52.77696a431.83104 431.83104 0 0 0 50.8928-66.97984 1003.90912 1003.90912 0 0 0-37.888-32.256 706.65216 706.65216 0 0 0-36.16768-27.3408l-1.00352 1.65888-6.72768 10.57792c-9.53344 13.89568-19.83488 22.016-31.16032 23.79776-11.29472 1.77152-21.87264-1.80224-31.26272-10.33216-10.51648-9.6768-15.29856-19.93728-13.37344-30.5152 1.6384-9.04192 6.87104-19.5072 15.53408-31.55968a386.4576 386.4576 0 0 0 24.832-41.30816 442.7776 442.7776 0 0 0 20.96128-46.36672 496.2304 496.2304 0 0 0 15.74912-48.0256c3.64544-13.4144 6.61504-26.46016 8.9088-39.05536l1.90464-11.0592c2.27328-12.34944 5.48864-21.7088 9.87136-28.17024C349.56288 249.6512 359.5264 245.76 373.03296 245.76z m93.09184 130.94912H388.4032a630.64064 630.64064 0 0 1-11.60192 32.68608 893.7472 893.7472 0 0 1-12.3904 30.5152 754.21696 754.21696 0 0 1 37.55008 27.5456c11.5712 9.0624 23.63392 18.91328 36.18816 29.55264a450.72384 450.72384 0 0 0 16.04608-53.23776 650.06592 650.06592 0 0 0 10.84416-58.94144l1.09568-8.12032z" fill="#707070" p-id="7224"></path></svg>