<?xml version="1.0" standalone="no"?><!DOCTYPE svg PUBLIC "-//W3C//DTD SVG 1.1//EN" "http://www.w3.org/Graphics/SVG/1.1/DTD/svg11.dtd"><svg t="1693320781931" class="icon" viewBox="0 0 1024 1024" version="1.1" xmlns="http://www.w3.org/2000/svg" p-id="4190" xmlns:xlink="http://www.w3.org/1999/xlink" width="64" height="64"><path d="M137.94 531.49a43.85 43.85 0 0 0 6.7 61.5 43.68 43.68 0 0 0 61.4-6.7l306.9-381.5 305 379.6a43.67 43.67 0 1 0 68.1-54.7l-339.1-422a43.71 43.71 0 0 0-68.1 0z m0 330a43.85 43.85 0 0 0 6.7 61.5 43.68 43.68 0 0 0 61.4-6.7l306.9-381.5 305 379.6a43.67 43.67 0 1 0 68.1-54.7l-339.1-422a43.71 43.71 0 0 0-68.1 0z" p-id="4191" fill="#1296db"></path></svg>