<?xml version="1.0" standalone="no"?><!DOCTYPE svg PUBLIC "-//W3C//DTD SVG 1.1//EN" "http://www.w3.org/Graphics/SVG/1.1/DTD/svg11.dtd"><svg t="1692885141454" class="icon" viewBox="0 0 1024 1024" version="1.1" xmlns="http://www.w3.org/2000/svg" p-id="8481" xmlns:xlink="http://www.w3.org/1999/xlink" width="64" height="64"><path d="M904.533333 345.6H119.466667c-25.6 0-42.666667-17.066667-42.666667-42.666667V200.533333c0-17.066667 8.533333-34.133333 25.6-38.4L494.933333 4.266667c8.533333-4.266667 21.333333-4.266667 29.866667 0l392.533333 157.866666c17.066667 8.533333 25.6 21.333333 25.6 38.4v102.4c4.266667 25.6-17.066667 42.666667-38.4 42.666667z m-742.4-85.333333h695.466667v-34.133334L512 89.6 162.133333 226.133333v34.133334zM981.333333 1024H42.666667c-25.6 0-42.666667-17.066667-42.666667-42.666667s17.066667-42.666667 42.666667-42.666666h938.666666c25.6 0 42.666667 17.066667 42.666667 42.666666s-17.066667 42.666667-42.666667 42.666667z" fill="#707070" p-id="8482"></path><path d="M512 187.733333m-42.666667 0a42.666667 42.666667 0 1 0 85.333334 0 42.666667 42.666667 0 1 0-85.333334 0Z" fill="#707070" p-id="8483"></path><path d="M174.933333 891.733333c-25.6 0-42.666667-17.066667-42.666666-42.666666v-418.133334c0-25.6 17.066667-42.666667 42.666666-42.666666s42.666667 17.066667 42.666667 42.666666v418.133334c0 21.333333-21.333333 42.666667-42.666667 42.666666zM401.066667 891.733333c-25.6 0-42.666667-17.066667-42.666667-42.666666v-418.133334c0-25.6 17.066667-42.666667 42.666667-42.666666s42.666667 17.066667 42.666666 42.666666v418.133334c0 21.333333-21.333333 42.666667-42.666666 42.666666zM622.933333 891.733333c-25.6 0-42.666667-17.066667-42.666666-42.666666v-418.133334c0-25.6 17.066667-42.666667 42.666666-42.666666s42.666667 17.066667 42.666667 42.666666v418.133334c0 21.333333-17.066667 42.666667-42.666667 42.666666zM849.066667 891.733333c-25.6 0-42.666667-17.066667-42.666667-42.666666v-418.133334c0-25.6 17.066667-42.666667 42.666667-42.666666s42.666667 17.066667 42.666666 42.666666v418.133334c0 21.333333-17.066667 42.666667-42.666666 42.666666z" fill="#707070" p-id="8484"></path></svg>