<?xml version="1.0" standalone="no"?><!DOCTYPE svg PUBLIC "-//W3C//DTD SVG 1.1//EN" "http://www.w3.org/Graphics/SVG/1.1/DTD/svg11.dtd"><svg t="1693560677758" class="icon" viewBox="0 0 1024 1024" version="1.1" xmlns="http://www.w3.org/2000/svg" p-id="6484" xmlns:xlink="http://www.w3.org/1999/xlink" width="64" height="64"><path d="M952 593.6V952H458.6V593.6H952m0-72H458.6c-39.8 0-72 32.2-72 72V952c0 39.8 32.2 72 72 72H952c39.8 0 72-32.2 72-72V593.6c0-39.8-32.2-72-72-72zM689 82.2c9.6 2.8 19.1 6.2 28.4 10.1 30.7 13 58.3 31.6 82 55.3 23.7 23.7 42.3 51.3 55.3 82 3.9 9.3 7.3 18.8 10.1 28.4H689V82.2M617 0v330h330C947 147.7 799.3 0 617 0z" p-id="6485" fill="#1296db"></path><path d="M358.6 868.2c-19.2-4.7-38-11-56.3-18.7-44.9-19-85.2-46.2-119.9-80.8-34.6-34.6-61.8-75-80.8-119.9C82 602.3 72 553 72 502s10-100.3 29.6-146.7c19-44.9 46.2-85.2 80.8-119.9 34.6-34.6 75-61.8 119.9-80.8C348.7 135 398.1 125 449 125c4.8 0 9.6 0.1 14.3 0.3v355.9h362.1c0.4 6.9 0.6 13.9 0.6 20.9h72c0-31.8-3.3-62.9-9.6-92.9h-353V61.3c-28-5.4-56.8-8.3-86.4-8.3C201 53 0 254 0 502c0 217 154 398.1 358.6 439.9v-73.7zM920.4 804.8h-15.7c-3-11.9-8.3-22.8-15.5-32.3l8-8c6.7-6.7 6.7-17.6 0-24.3-6.7-6.7-17.6-6.7-24.3 0l-9.4 9.4c-8.5-5-17.8-8.6-27.8-10.6v-12.8c0-9.5-7.7-17.2-17.2-17.2s-17.2 7.7-17.2 17.2V739a88.66 88.66 0 0 0-34.3 14.8l-8.6-8.6c-6.7-6.7-17.6-6.7-24.3 0-6.7 6.7-6.7 17.6 0 24.3l9.2 9.2c-6.8 10.8-11.4 23.1-13.1 36.3h-13.1c-9.5 0-17.2 7.7-17.2 17.2s7.7 17.2 17.2 17.2h15.5c3.2 11.8 8.7 22.6 16.1 31.9l-8.4 8.4c-6.7 6.7-6.7 17.6 0 24.3 6.7 6.7 17.6 6.7 24.3 0l10.4-10.4c8.2 4.6 17.3 8 26.9 9.8v14.5c0 9.5 7.7 17.2 17.2 17.2s17.2-7.7 17.2-17.2v-14.8c12-2.5 23.2-7.4 32.9-14.2l9.9 9.9c6.7 6.7 17.6 6.7 24.3 0 6.7-6.7 6.7-17.6 0-24.3l-10.3-10.3c6.8-10.4 11.4-22.4 13.3-35.2h14c9.5 0 17.2-7.7 17.2-17.2 0-9.3-7.7-17-17.2-17z m-102 75.9c-30 0-54.5-24.4-54.5-54.5 0-30 24.4-54.5 54.5-54.5 30 0 54.5 24.4 54.5 54.5s-24.5 54.5-54.5 54.5z" p-id="6486" fill="#1296db"></path><path d="M819 826.8m-22 0a22 22 0 1 0 44 0 22 22 0 1 0-44 0Z" p-id="6487" fill="#1296db"></path><path d="M712.9 776.2c-7.8-4.8-16.1-9-24.7-12.4 18.8-15.8 30.8-39.5 30.8-66 0-47.7-38.7-86.4-86.4-86.4s-86.4 38.7-86.4 86.4c0 26.5 12 50.3 30.8 66.1-54.8 21.4-94.1 73.5-97 135.1h41.8c1.7-26.9 13-52 32.3-71.3 21-21 48.9-32.5 78.5-32.5 19.4 0 38 4.9 54.4 14.2 6.5-12.7 15.3-23.9 25.9-33.2z m-80.3-33.8c-24.6 0-44.7-20-44.7-44.7s20-44.7 44.7-44.7c24.6 0 44.7 20 44.7 44.7s-20.1 44.7-44.7 44.7z" p-id="6488" fill="#1296db"></path><path d="M764.7 651.7m-22 0a22 22 0 1 0 44 0 22 22 0 1 0-44 0Z" p-id="6489" fill="#1296db"></path><path d="M832.7 651.7m-22 0a22 22 0 1 0 44 0 22 22 0 1 0-44 0Z" p-id="6490" fill="#1296db"></path><path d="M904.7 651.7m-22 0a22 22 0 1 0 44 0 22 22 0 1 0-44 0Z" p-id="6491" fill="#1296db"></path></svg>