<?xml version="1.0" standalone="no"?><!DOCTYPE svg PUBLIC "-//W3C//DTD SVG 1.1//EN" "http://www.w3.org/Graphics/SVG/1.1/DTD/svg11.dtd"><svg t="1692840860467" class="icon" viewBox="0 0 1024 1024" version="1.1" xmlns="http://www.w3.org/2000/svg" p-id="5232" xmlns:xlink="http://www.w3.org/1999/xlink" width="64" height="64"><path d="M629.57037 589.558519l0.094815-0.758519-0.094815-0.758519c-1.327407-10.42963-8.912593-16.687407-20.29037-16.687407H476.254815v-79.739259h117.854815c12.325926 0 20.385185-7.395556 21.617777-19.626667l0.094815-0.663704-0.094815-0.663703c-1.327407-11.567407-9.197037-18.204444-21.617777-18.204445H476.254815v-69.594074c0-11.472593-7.395556-19.057778-19.626667-20.29037l-0.663704-0.094815-0.663703 0.094815c-12.325926 1.232593-19.626667 8.817778-19.626667 20.29037v188.397037H372.622222V446.482963c0.094815-12.325926-7.300741-20.385185-19.531852-21.712593l-0.663703-0.094814-0.663704 0.094814c-12.325926 1.232593-19.626667 9.291852-19.626667 21.617778v124.871111h-25.22074c-17.635556 0-21.048889 11.662222-21.617778 16.782222l-0.094815 0.758519 0.094815 0.758519c1.327407 11.567407 9.197037 18.204444 21.617778 18.204444h302.554074c11.188148 0 18.773333-6.826667 20.10074-18.204444z" p-id="5233" fill="#1296db"></path><path d="M286.72 415.288889c2.939259 8.912593 9.197037 13.748148 17.825185 13.748148 2.56 0 5.30963-0.474074 8.154074-1.327407 45.89037-14.032593 94.245926-45.226667 143.54963-92.728889l0.568889-0.568889 0.094815-0.094815c0.758519-0.948148 1.517037-1.801481 2.085926-2.56 2.180741 1.991111 5.214815 4.93037 9.007407 8.722963l0.18963 0.18963c49.398519 45.700741 96.331852 74.524444 139.662222 85.807407l0.189629 0.094815c12.325926 2.465185 21.522963-2.085926 26.548149-13.368889l0.094814-0.474074 0.284445-0.948148c2.465185-12.325926-3.128889-21.617778-15.36-25.410371-38.58963-13.463704-79.739259-39.063704-122.026667-76.041481-25.979259-23.324444-34.702222-26.548148-40.296296-26.548148-3.982222 0-9.955556 1.706667-32.047408 22.471111-44.183704 41.528889-86.186667 68.93037-124.681481 81.445926l-0.568889 0.189629c-11.188148 5.025185-15.834074 14.222222-13.368889 26.548149l0.094815 0.853333zM782.032593 699.259259l-56.225186 46.554074-19.247407-19.152592c-8.059259-7.964444-21.048889-7.86963-29.013333 0.189629-7.964444 8.059259-7.86963 21.048889 0.189629 29.013334l32.426667 32.142222c3.982222 3.982222 9.197037 5.878519 14.411852 5.878518 4.645926 0 9.291852-1.611852 13.084444-4.74074l70.447408-58.405926c8.722963-7.205926 9.955556-20.100741 2.749629-28.823704-7.205926-8.628148-20.100741-9.860741-28.823703-2.654815z" p-id="5234" fill="#1296db"></path><path d="M246.139259 790.471111c71.205926 64.663704 152.177778 109.985185 207.170371 109.985185 37.167407 0 60.302222-4.740741 110.08-38.115555 8.912593-5.878519 11.567407-17.73037 6.162963-27.022222-0.094815-0.094815-0.094815-0.18963-0.18963-0.284445-5.878519-10.145185-18.678519-12.420741-28.823704-6.637037-3.887407 2.180741-2.37037 1.422222-9.102222 5.214815-30.72 17.066667-58.595556 25.884444-78.032593 25.884444s-47.217778-9.197037-78.032592-25.884444c-32.995556-17.825185-67.982222-43.045926-101.072593-73.197037-39.348148-37.736296-65.896296-68.93037-83.531852-98.038519-18.10963-29.866667-26.548148-57.078519-26.548148-85.617777V280.367407c35.555556-3.982222 92.634074-12.515556 152.557037-37.736296 49.682963-19.531852 88.367407-39.727407 112.071111-53.285926 2.275556-1.327407 14.317037-8.154074 26.358519-15.928889h0.568889c25.125926 14.980741 71.964444 42.856296 133.878518 69.025185 38.21037 16.118519 80.592593 28.16 125.914074 35.460741 9.860741 1.611852 18.962963 2.844444 27.117037 3.792593v247.845926c0 11.662222 3.508148 22.85037 17.161482 23.608889 13.653333 0.758519 23.514074-3.792593 23.514074-23.514074l0.284444-286.056297h-3.223703c-6.447407 0-90.642963-3.223704-174.743704-38.874074-84.195556-35.745185-139.188148-74.524444-148.859259-77.748148l-3.223704-3.223704-3.223704 3.223704c-3.223704 3.223704-58.216296 42.097778-148.859259 77.653333-84.100741 35.555556-164.977778 35.555556-174.648889 38.874074H123.259259V583.111111c2.465185 71.86963 47.407407 135.111111 122.88 207.36z" p-id="5235" fill="#1296db"></path><path d="M743.632593 587.946667c-86.281481 0-156.254815 69.973333-156.254815 156.254814 0 86.281481 69.973333 156.254815 156.254815 156.254815 86.281481 0 156.254815-69.973333 156.254814-156.254815 0-86.281481-69.973333-156.254815-156.254814-156.254814z m81.54074 237.795555c-21.807407 21.807407-50.725926 33.754074-81.54074 33.754074s-59.733333-11.946667-81.540741-33.754074-33.754074-50.725926-33.754074-81.540741 11.946667-59.733333 33.754074-81.54074 50.725926-33.754074 81.540741-33.754074 59.733333 11.946667 81.54074 33.754074 33.754074 50.725926 33.754074 81.54074-12.041481 59.828148-33.754074 81.540741z" p-id="5236" fill="#1296db"></path></svg>