<?xml version="1.0" standalone="no"?><!DOCTYPE svg PUBLIC "-//W3C//DTD SVG 1.1//EN" "http://www.w3.org/Graphics/SVG/1.1/DTD/svg11.dtd"><svg t="1693560786499" class="icon" viewBox="0 0 1024 1024" version="1.1" xmlns="http://www.w3.org/2000/svg" p-id="9854" xmlns:xlink="http://www.w3.org/1999/xlink" width="64" height="64"><path d="M868.16 842.24h-27.872v-297.792a27.84 27.84 0 0 0-27.904-27.616h-83.584v326.72h-20.928v-434.24a27.84 27.84 0 0 0-27.872-27.616h-225.824v-60.672h186.752c4.16 0 6.976-1.344 9.792-2.752a15.456 15.456 0 0 0 2.784-22.08l-51.52-67.552 50.176-67.584a26.048 26.048 0 0 0 2.816-9.664 15.36 15.36 0 0 0-15.36-15.136H448.64c-4.16-4.16-11.136-6.912-13.952-8.256a23.392 23.392 0 0 0-23.712 23.488v228.864h-68.32a27.84 27.84 0 0 0-27.904 27.584v432.96h-19.488V515.456H210.272a27.84 27.84 0 0 0-27.904 27.584v299.168h-27.904c-13.952 0-26.464 12.352-26.464 26.176 0 15.136 11.136 27.584 26.464 27.584h715.072c15.328 0 26.464-12.384 26.464-27.584 0.064-15.168-12.512-26.176-27.84-26.176z m-401.152-48.896c0 17.376-14.4 31.648-32 31.648s-32-14.272-32-31.68v-288.864c0-17.376 14.4-31.648 32-31.648s32 14.272 32 31.68v288.864z m135.104 0c0 17.376-14.4 31.648-32 31.648s-32-14.272-32-31.68v-288.864c0-17.376 14.4-31.648 32-31.648s32 14.272 32 31.68v288.864z" fill="#707070" p-id="9855"></path></svg>