<?xml version="1.0" standalone="no"?><!DOCTYPE svg PUBLIC "-//W3C//DTD SVG 1.1//EN" "http://www.w3.org/Graphics/SVG/1.1/DTD/svg11.dtd"><svg t="1692840779708" class="icon" viewBox="0 0 1024 1024" version="1.1" xmlns="http://www.w3.org/2000/svg" p-id="4058" xmlns:xlink="http://www.w3.org/1999/xlink" width="64" height="64"><path d="M512.002558 64.239837c-247.947092 0-448.946614 200.425112-448.946614 447.664084S264.055466 959.568005 512.002558 959.568005c247.945293 0 448.943616-200.426111 448.943616-447.664084S759.947851 64.239837 512.002558 64.239837zM512.002558 909.82553c-220.399169 0-399.067232-178.15681-399.067232-397.923608S291.603589 113.977715 512.002558 113.977715c220.394373 0 399.060637 178.15681 399.060637 397.924407S732.396931 909.82553 512.002558 909.82553zM412.2356 213.459666l199.531318 0-49.882979 99.480152-99.765159 0L412.2356 213.459666zM416.79411 583.035494l190.50204 138.151733 29.412059-35.19234-6.540166-22.828322-195.674333-141.90319L416.79411 583.035494zM585.190537 506.195791l-48.247288-168.384635-49.883979 0-23.064162 80.493825L585.190537 506.195791zM410.89331 603.626333l-23.600399 82.368554 124.707648 149.219829 82.354564-98.541389L410.89331 603.626333zM458.095907 438.89682l-17.701398 61.775716 180.776633 131.098515-26.985504-94.179946L458.095907 438.89682z" fill="#1296db" p-id="4059"></path></svg>