<?xml version="1.0" standalone="no"?><!DOCTYPE svg PUBLIC "-//W3C//DTD SVG 1.1//EN" "http://www.w3.org/Graphics/SVG/1.1/DTD/svg11.dtd"><svg t="1692885166450" class="icon" viewBox="0 0 1024 1024" version="1.1" xmlns="http://www.w3.org/2000/svg" p-id="9760" xmlns:xlink="http://www.w3.org/1999/xlink" width="64" height="64"><path d="M899.584 254.976h-1.024c-3.072-0.512-5.632-0.512-8.704-0.512-27.648 0-50.688 16.384-60.416 43.008L779.264 453.12c-8.192-3.072-16.896-4.608-26.112-4.608-14.336 0-28.672 3.584-43.008 11.264l-163.328 87.04c-13.824 7.168-25.6 17.92-35.328 31.232-9.728-13.312-22.016-24.064-35.328-31.232l-163.84-87.552C297.984 451.584 283.648 448 269.312 448c-9.216 0-17.92 1.536-26.112 4.608L193.024 296.96c-9.216-26.624-32.256-43.008-60.416-43.008-3.072 0-5.632 0-8.704 0.512h-1.024c-26.624 4.608-55.296 29.696-55.808 74.24v0.512l7.168 193.536c0 29.696 9.728 60.928 28.672 91.648 10.24 16.384 23.04 30.208 35.328 43.52l0.512 0.512 99.328 95.744c18.432 17.92 36.352 34.304 48.128 53.76l43.008 69.632c5.632 9.216 15.36 14.848 25.6 14.848 5.632 0 11.264-1.536 16.384-4.608 14.848-9.216 18.944-27.136 9.728-41.984l-44.544-72.704c-15.36-25.088-35.84-45.056-56.832-65.536l-98.304-95.232c-29.184-29.184-46.08-64-47.104-94.72l-7.168-193.536c0-3.584 0.512-9.728 5.632-10.752h0.512c0 0.512 0.512 0.512 0.512 1.024l56.32 176.128 3.072 13.824c3.072 20.48 8.192 43.008 37.888 70.656 4.096 5.632 9.728 9.728 12.8 11.776l57.344 45.568c7.168 6.144 14.336 7.168 19.456 7.168 8.704 0 16.896-4.096 22.528-11.264 11.264-13.312 9.728-31.232-3.584-41.984l-58.88-46.592c-18.432-14.336-21.504-25.6-20.992-28.672 1.536-1.536 4.608-2.56 7.68-2.56 4.096 0 9.728 1.536 14.336 4.096l163.328 87.04c20.48 12.288 32.256 45.056 31.744 70.144l2.048 96.256v0.512c0.512 6.144 3.072 11.776 7.168 16.384 4.608 5.632 11.264 9.728 18.432 11.264l4.608 1.024h1.024l4.608-1.024c7.168-1.536 13.824-5.632 18.432-11.264 4.096-4.608 6.656-10.752 7.168-16.384v-0.512l2.048-96.256c0-25.088 11.776-57.856 31.744-70.144l162.816-87.04c5.632-2.56 10.752-4.096 14.848-4.096 3.072 0 6.144 1.024 7.68 2.56 0 3.072-2.56 13.824-20.992 28.672l-58.88 46.592c-13.312 11.264-14.848 28.672-3.584 41.984 6.144 7.168 14.336 11.264 22.528 11.264 4.608 0 11.776-1.024 19.456-7.168l57.344-45.568c3.072-2.048 8.704-6.144 12.8-11.776 29.184-27.648 34.816-50.176 37.888-70.656l3.072-13.824 56.32-175.616c0.512-1.024 0.512-1.536 1.024-1.536h1.024c4.608 0.512 5.12 6.656 5.12 10.752l-7.168 193.536c-1.024 30.72-17.92 65.024-46.592 94.208l-98.304 95.232c-21.504 19.968-41.472 40.448-57.344 65.536l-44.544 72.704c-9.216 14.848-4.608 32.768 10.24 41.984 5.12 3.072 10.752 4.608 16.384 4.608 10.24 0 19.968-5.632 25.6-14.848l43.008-69.632c11.776-19.456 29.696-35.84 48.128-53.76l98.816-95.232 1.024-1.024c12.288-13.312 25.088-27.136 35.328-43.52 18.432-30.208 28.672-61.952 28.672-91.648l7.168-193.536v-1.024c2.048-42.496-26.624-68.096-53.248-72.704z" p-id="9761" fill="#707070"></path><path d="M496.128 452.608c5.12 3.072 10.24 4.608 15.872 4.608s11.264-1.536 15.872-4.608c16.896-10.24 162.816-102.4 162.816-205.312 0-64-53.248-116.224-118.784-116.224-21.504 0-41.984 5.632-60.416 16.384-17.92-10.752-38.912-16.384-60.416-16.384-65.536 0-118.784 52.224-118.784 116.224 1.024 102.912 146.944 195.072 163.84 205.312z m-44.544-260.096c14.848 0 28.672 5.632 39.424 15.36 11.776 10.752 30.208 10.752 41.472 0 10.752-9.728 24.576-15.36 39.424-15.36 31.744 0 57.344 24.576 57.344 54.784 0 46.592-66.56 107.52-117.248 142.336-50.688-34.816-117.248-95.744-117.248-142.336 0-30.208 25.6-54.784 56.832-54.784z" p-id="9762" fill="#707070"></path></svg>