<?xml version="1.0" standalone="no"?><!DOCTYPE svg PUBLIC "-//W3C//DTD SVG 1.1//EN" "http://www.w3.org/Graphics/SVG/1.1/DTD/svg11.dtd"><svg t="1693445146833" class="icon" viewBox="0 0 1024 1024" version="1.1" xmlns="http://www.w3.org/2000/svg" p-id="4027" xmlns:xlink="http://www.w3.org/1999/xlink" width="64" height="64"><path d="M712.704 388.608c13.312 0 27.136 13.312 27.136 27.136 0 13.312-13.312 27.136-27.136 27.136H228.352c-14.336-1.024-26.112-12.288-27.136-27.136 0-13.312 13.312-27.136 27.136-27.136h484.352zM322.56 550.4c10.24 0 17.408 10.752 17.408 27.136 0 13.312-7.168 27.136-17.408 27.136H218.624c-8.704 0-17.408-13.312-17.408-27.136 0-16.384 8.704-27.136 17.408-27.136H322.56zM322.56 711.68c8.704 0 17.408 10.752 17.408 27.136 0 13.312-8.704 27.136-17.408 27.136H218.624c-8.704 0-17.408-13.312-17.408-27.136 0-16.384 8.704-27.136 17.408-27.136H322.56zM712.704 227.328c13.312 0 27.136 13.312 27.136 27.136 0 13.312-13.312 27.136-27.136 27.136H228.352c-14.336-1.024-26.112-12.288-27.136-27.136 0-13.312 13.312-27.136 27.136-27.136h484.352z" p-id="4028" fill="#707070"></path><path d="M486.912 967.168H210.944c-87.552 0-154.624-60.416-154.624-134.656V160.256C56.32 86.016 123.392 25.6 210.944 25.6h538.112c87.552 0 154.624 60.416 154.624 134.656v215.04c0 13.312-6.656 19.968-19.968 19.968-13.312 0-19.968-6.656-19.968-19.968v-215.04c0-53.76-53.76-94.208-114.176-94.208H210.944c-60.416 0-114.176 40.448-114.176 94.208v672.768c0 53.76 53.76 94.208 114.176 94.208h275.968c13.312 0 19.968 6.656 19.968 19.968s-6.656 19.968-19.968 19.968z" p-id="4029" fill="#707070"></path><path d="M739.328 527.36c131.584 0.512 238.08 107.008 238.08 238.08-0.512 131.584-107.008 238.08-238.08 238.08-131.584-0.512-238.08-107.008-238.08-238.08 0.512-131.584 107.008-238.08 238.08-238.08z m-98.816 373.76l229.376-132.608-229.376-132.608V901.12z" p-id="4030" fill="#707070"></path></svg>